<svg xmlns="http://www.w3.org/2000/svg" xmlns:xlink="http://www.w3.org/1999/xlink" width="190" height="23" viewBox="0 0 190 23">
    <defs>
        <path id="a" d="M190 22.276V0H0v22.276z"/>
    </defs>
    <g fill="none" fill-rule="evenodd">
        <mask id="b" fill="#fff">
            <use xlink:href="#a"/>
        </mask>
        <path fill="#FEFEFE" d="M16.04 21.89h5.06L13.421.772H7.678L0 21.89h5.03l1.606-4.937h7.797l1.607 4.937zm-8.243-8.477L9.73 7.524c.298-.921.566-1.724.774-2.973h.06c.208 1.249.476 2.052.773 2.973l1.935 5.89H7.797zm19.072-2.557V7.019h-4.493v14.87h4.79v-6.067c0-1.516.239-2.855 1.191-3.747.655-.565 1.607-.892 2.887-.892.357 0 .595 0 .893.03V6.662h-.298c-2.56 0-4.196 1.517-4.97 4.194zm11.252 11.39c2.172 0 3.958-1.13 4.702-2.914v2.557h4.523V.327h-4.761v8.685c-.744-1.547-2.232-2.35-4.196-2.35-3.72 0-6.22 3.123-6.22 7.852 0 4.64 2.38 7.732 5.952 7.732zm1.875-3.3c-1.816 0-2.917-1.726-2.917-4.522 0-2.855 1.042-4.46 2.857-4.46 1.697 0 2.708 1.397 2.708 3.925v1.279c0 2.32-1.011 3.777-2.648 3.777zm9.031-14.068h4.97V.535h-4.97v4.343zm.06 17.011h4.79V7.02h-4.79v14.87zm6.419 0h4.79v-8.03c0-2.29.923-3.569 2.59-3.569 1.518 0 2.232.982 2.232 3.034v8.565h4.761v-9.22c0-3.985-1.637-6.037-4.85-6.037-2.262 0-3.899 1.07-4.94 3.242V7.02h-4.583v14.87zm20.614.357c2.32 0 4.225-1.04 4.97-2.706.029.833.089 1.636.237 2.35h4.643c-.268-.922-.417-2.38-.417-4.135v-4.937c0-4.282-2.143-6.156-6.934-6.156-4.225 0-6.904 1.963-7.142 5.264h4.732c.09-1.427.922-2.2 2.38-2.2 1.489 0 2.203.743 2.203 2.438v.506l-3.601.505c-2.262.298-3.69.773-4.672 1.458-1.012.713-1.518 1.814-1.518 3.211 0 2.647 2.054 4.402 5.119 4.402zm1.785-3.033c-1.25 0-2.083-.684-2.083-1.725 0-1.1.804-1.725 2.56-2.052l2.558-.417v1.19c0 1.784-1.22 3.004-3.035 3.004zm10.773 2.676h9.284v-.713l-1.487-.268c-.953-.179-1.102-.297-1.102-1.993v-6.81h.745c2.558 0 2.916.119 3.332.892.387.803.655 1.517.923 2.558h.774V7.643h-.774c-.268 1.041-.536 1.726-.923 2.41-.416.654-.863.892-3.332.892h-.745V2.707c.536-.12 1.429-.238 2.917-.238 2.35 0 2.857.178 3.72 1.487.476.713.922 1.516 1.636 3.241h.834l-.298-5.918H88.678v.714l1.16.238c.804.178 1.072.327 1.072 2.022v14.662c0 1.696-.268 1.874-1.072 2.023l-1.16.238v.713zm16.462 0h7.797v-.684l-.952-.237c-.804-.209-.953-.357-.953-1.636V9.487c0-1.457.09-2.617.12-3.152l-.268-.178-5.803.683v.506l1.041.625c.774.475.923.565.923 1.814v9.547c0 1.219-.149 1.397-.952 1.636l-.953.237v.684zm3.78-17.547c1.25 0 2.261-.952 2.261-2.17C111.181.951 110.17 0 108.92 0c-1.28 0-2.292.952-2.292 2.171 0 1.22 1.012 2.171 2.292 2.171zm4.362 17.547h7.708v-.684l-.923-.237c-.774-.209-.892-.298-.892-1.636V9.072c.743-.18 2.053-.536 3.273-.536 1.577 0 2.262.624 2.262 2.528v8.268c0 1.338-.12 1.427-.893 1.636l-.923.237v.684h7.708v-.684l-.952-.237c-.774-.209-.953-.387-.953-1.636v-9.22c0-2.677-1.22-3.955-3.928-3.955-2.053 0-4.077.951-5.594 2.022h-.15l.06-1.844-.268-.178-5.594.683v.506l1.041.625c.774.475.923.565.923 1.814v9.547c0 1.219-.15 1.397-.953 1.636l-.952.237v.684zm21.858.387c1.815 0 3.273-.833 4.017-1.814h.15c.267 1.1 1.19 1.784 2.826 1.784 1.429 0 2.59-.505 3.095-.892v-.625c-.506 0-1.041-.089-1.399-.267-.565-.297-.744-.744-.744-1.725v-8.595c0-2.796-1.904-4.015-5.535-4.015-3.452 0-6.13.922-6.13 2.825 0 .981.595 1.666 1.815 1.666 1.458 0 1.875-.803 2.024-2.32.089-.863.387-1.1 1.458-1.1 1.994 0 2.38.891 2.38 3.182v2.765l-3.51.863c-2.768.654-4.911 1.784-4.911 4.313 0 2.527 1.696 3.955 4.464 3.955zm1.815-1.844c-1.398 0-2.321-.803-2.321-2.647 0-2.171 1.041-2.914 2.738-3.063l1.726-.179v4.789c-.328.595-1.072 1.1-2.143 1.1zm8.598 1.457h7.707v-.684l-.923-.237c-.773-.209-.892-.298-.892-1.636V9.072c.744-.18 2.053-.536 3.273-.536 1.578 0 2.262.624 2.262 2.528v8.268c0 1.338-.12 1.427-.893 1.636l-.922.237v.684h7.707v-.684l-.952-.237c-.774-.209-.953-.387-.953-1.636v-9.22c0-2.677-1.22-3.955-3.928-3.955-2.053 0-4.077.951-5.594 2.022h-.15l.06-1.844-.267-.178-5.595.683v.506l1.042.625c.773.475.922.565.922 1.814v9.547c0 1.219-.149 1.397-.952 1.636l-.952.237v.684zm24.345.357c3.005 0 5.148-1.517 6.011-2.468v-.922c-1.041.535-2.589 1.16-4.464 1.16-3.333 0-4.731-2.38-4.731-6.87 0-4.67 1.904-5.919 3.898-5.919.982 0 1.22.208 1.37 1.428.148 1.13.564 2.022 1.963 2.022 1.16 0 1.935-.803 1.935-1.874 0-1.695-1.578-2.676-4.465-2.676-3.928 0-8.749 1.933-8.749 8.208 0 4.729 2.56 7.911 7.232 7.911zm13.674 0c2.946 0 5.089-1.546 6.04-2.498v-.892c-1.13.535-2.499 1.16-4.522 1.16-3.036 0-4.97-1.547-5.03-6.454H190c-.06-5.383-2.47-7.435-6.428-7.435-3.899 0-7.53 3.003-7.53 8 0 4.967 2.5 8.12 7.53 8.12zm-.179-15.078c1.964 0 2.47 1.457 2.47 5.056l-5.803.297c.149-3.777 1.518-5.353 3.333-5.353z" mask="url(#b)"/>
    </g>
</svg>
