<svg xmlns="http://www.w3.org/2000/svg" xmlns:xlink="http://www.w3.org/1999/xlink" width="440" height="52" viewBox="0 0 440 52">
    <defs>
        <path id="a" d="M439.24 51.497V0H0v51.497z"/>
    </defs>
    <g fill="none" fill-rule="evenodd">
        <mask id="b" fill="#fff">
            <use xlink:href="#a"/>
        </mask>
        <path fill="#FEFEFE" d="M37.082 50.604h11.695L31.027 1.788H17.75L0 50.604h11.627l3.715-11.414h18.025l3.715 11.414zM18.025 31.008l4.472-13.613c.687-2.131 1.307-3.987 1.789-6.875h.137c.482 2.888 1.101 4.744 1.789 6.875l4.472 13.613h-12.66zm44.091-5.912v-8.87H51.728v34.378h11.076V36.578c0-3.506.55-6.601 2.752-8.664 1.514-1.306 3.715-2.062 6.673-2.062.826 0 1.376 0 2.064.069v-10.52h-.688c-5.916 0-9.7 3.506-11.489 9.695zm26.011 26.333c5.022 0 9.15-2.613 10.87-6.738v5.913h10.457V.757H98.447v20.076c-1.72-3.576-5.16-5.432-9.7-5.432-8.6 0-14.379 7.22-14.379 18.152 0 10.725 5.504 17.876 13.76 17.876zm4.334-7.632c-4.196 0-6.742-3.988-6.742-10.45 0-6.601 2.408-10.314 6.604-10.314 3.923 0 6.261 3.231 6.261 9.076v2.956c0 5.363-2.338 8.732-6.123 8.732zm20.88-32.521h11.489V1.238h-11.49v10.038zm.137 39.328h11.076V16.226h-11.076v34.378zm14.84 0h11.076V32.039c0-5.293 2.132-8.25 5.985-8.25 3.509 0 5.16 2.269 5.16 7.013v19.802h11.007V29.29c0-9.214-3.784-13.958-11.214-13.958-5.228 0-9.012 2.476-11.42 7.495v-6.601h-10.594v34.378zm47.654.825c5.366 0 9.77-2.407 11.49-6.257.068 1.925.206 3.782.55 5.432h10.732c-.62-2.131-.963-5.5-.963-9.558V29.634c0-9.902-4.954-14.233-16.03-14.233-9.768 0-15.96 4.538-16.51 12.17h10.938c.206-3.3 2.132-5.088 5.504-5.088 3.44 0 5.09 1.719 5.09 5.638v1.169l-8.324 1.169c-5.228.687-8.53 1.787-10.801 3.368-2.34 1.65-3.509 4.195-3.509 7.426 0 6.119 4.748 10.176 11.833 10.176zm4.128-7.013c-2.89 0-4.815-1.582-4.815-3.988 0-2.544 1.857-3.988 5.916-4.744l5.916-.962v2.75c0 4.125-2.82 6.944-7.017 6.944zm24.904 6.188h21.464v-1.65l-3.439-.62c-2.202-.412-2.546-.687-2.546-4.606V27.984h1.72c5.916 0 6.743.274 7.705 2.062.895 1.856 1.514 3.507 2.133 5.913h1.789V17.67h-1.789c-.619 2.407-1.238 3.989-2.133 5.57-.962 1.513-1.995 2.063-7.705 2.063h-1.72V6.257c1.238-.275 3.302-.55 6.742-.55 5.436 0 6.605.412 8.6 3.438 1.1 1.65 2.132 3.506 3.783 7.494h1.927l-.688-13.682h-35.843v1.65l2.683.55c1.858.412 2.477.756 2.477 4.675v33.896c0 3.92-.62 4.332-2.477 4.675l-2.683.55v1.65zm38.058 0h18.025v-1.582l-2.202-.55c-1.857-.481-2.202-.825-2.202-3.781V21.933c0-3.369.207-6.05.276-7.288l-.619-.412-13.416 1.58v1.17l2.408 1.443c1.79 1.1 2.133 1.306 2.133 4.195v22.07c0 2.819-.344 3.231-2.201 3.782l-2.202.549v1.582zm8.738-40.566c2.889 0 5.228-2.2 5.228-5.018 0-2.82-2.34-5.02-5.228-5.02-2.96 0-5.298 2.2-5.298 5.02 0 2.818 2.339 5.018 5.298 5.018zm10.084 40.566h17.819v-1.582l-2.133-.55c-1.789-.481-2.064-.688-2.064-3.781V20.97c1.72-.414 4.747-1.239 7.568-1.239 3.646 0 5.228 1.445 5.228 5.845V44.69c0 3.093-.275 3.3-2.064 3.782l-2.132.549v1.582h17.818v-1.582l-2.201-.55c-1.79-.481-2.202-.894-2.202-3.781V23.377c0-6.188-2.82-9.144-9.08-9.144-4.748 0-9.426 2.2-12.935 4.674h-.344l.138-4.262-.62-.412-12.933 1.58v1.17l2.407 1.443c1.79 1.1 2.134 1.306 2.134 4.195v22.07c0 2.819-.345 3.231-2.202 3.782l-2.202.549v1.582zm50.53.893c4.197 0 7.568-1.925 9.288-4.194h.344c.62 2.544 2.752 4.126 6.536 4.126 3.302 0 5.985-1.17 7.154-2.063v-1.444c-1.169 0-2.407-.206-3.233-.619-1.307-.687-1.72-1.718-1.72-3.988v-19.87c0-6.462-4.403-9.282-12.796-9.282-7.98 0-14.172 2.132-14.172 6.532 0 2.27 1.376 3.85 4.196 3.85 3.372 0 4.335-1.856 4.679-5.362.206-1.994.894-2.544 3.371-2.544 4.61 0 5.503 2.062 5.503 7.356v6.394l-8.117 1.994c-6.398 1.514-11.352 4.126-11.352 9.97s3.922 9.144 10.32 9.144zm4.197-4.262c-3.233 0-5.366-1.856-5.366-6.12 0-5.019 2.408-6.737 6.33-7.081l3.99-.413v11.07c-.757 1.375-2.477 2.544-4.954 2.544zm19.876 3.369h17.817v-1.582l-2.132-.55c-1.789-.481-2.064-.688-2.064-3.781V20.97c1.72-.414 4.747-1.239 7.568-1.239 3.646 0 5.228 1.445 5.228 5.845V44.69c0 3.093-.275 3.3-2.064 3.782l-2.132.549v1.582h17.818v-1.582l-2.201-.55c-1.79-.481-2.202-.894-2.202-3.781V23.377c0-6.188-2.82-9.144-9.081-9.144-4.747 0-9.425 2.2-12.934 4.674h-.344l.138-4.262-.62-.412-12.933 1.58v1.17l2.408 1.443c1.788 1.1 2.132 1.306 2.132 4.195v22.07c0 2.819-.344 3.231-2.201 3.782l-2.201.549v1.582zm56.28.825c6.95 0 11.903-3.507 13.898-5.707V43.59c-2.408 1.237-5.985 2.681-10.32 2.681-7.705 0-10.938-5.5-10.938-15.883 0-10.794 4.403-13.681 9.012-13.681 2.27 0 2.82.48 3.165 3.3.343 2.613 1.307 4.675 4.54 4.675 2.684 0 4.472-1.856 4.472-4.332 0-3.919-3.646-6.188-10.32-6.188-9.08 0-20.225 4.47-20.225 18.977 0 10.932 5.916 18.289 16.717 18.289zm31.612 0c6.811 0 11.765-3.575 13.966-5.776v-2.062c-2.614 1.237-5.779 2.681-10.457 2.681-7.017 0-11.489-3.576-11.626-14.92h22.978c-.138-12.445-5.71-17.189-14.86-17.189-9.013 0-17.406 6.945-17.406 18.496 0 11.481 5.78 18.77 17.405 18.77zm-.412-34.859c4.54 0 5.71 3.369 5.71 11.688l-13.415.688c.343-8.732 3.508-12.376 7.705-12.376z" mask="url(#b)"/>
    </g>
</svg>
